<svg xmlns="http://www.w3.org/2000/svg" viewBox="0 0 820 420" font-family="Inter, sans-serif">
<rect width="820" height="420" fill="#ffffff"/>
<text x="70" y="22" font-size="15" fill="#0f172a" font-weight="700">Brent crude (USD/bbl) — Jan to Apr 2026</text>
<text x="70" y="40" font-size="12" fill="#6b7280">Source: EuroOilWatch / Stooq front-month. Pre-escalation baseline ≈ $68; latest $105.33 (+66% YTD).</text>
<line x1="70" y1="360.0" x2="790" y2="360.0" stroke="#e5e7eb" stroke-width="1"/><text x="62" y="364.0" text-anchor="end" font-size="11" fill="#6b7280" font-family="Inter, sans-serif">$60</text><line x1="70" y1="308.3" x2="790" y2="308.3" stroke="#e5e7eb" stroke-width="1"/><text x="62" y="312.3" text-anchor="end" font-size="11" fill="#6b7280" font-family="Inter, sans-serif">$70</text><line x1="70" y1="256.7" x2="790" y2="256.7" stroke="#e5e7eb" stroke-width="1"/><text x="62" y="260.7" text-anchor="end" font-size="11" fill="#6b7280" font-family="Inter, sans-serif">$80</text><line x1="70" y1="205.0" x2="790" y2="205.0" stroke="#e5e7eb" stroke-width="1"/><text x="62" y="209.0" text-anchor="end" font-size="11" fill="#6b7280" font-family="Inter, sans-serif">$90</text><line x1="70" y1="153.3" x2="790" y2="153.3" stroke="#e5e7eb" stroke-width="1"/><text x="62" y="157.3" text-anchor="end" font-size="11" fill="#6b7280" font-family="Inter, sans-serif">$100</text><line x1="70" y1="101.7" x2="790" y2="101.7" stroke="#e5e7eb" stroke-width="1"/><text x="62" y="105.7" text-anchor="end" font-size="11" fill="#6b7280" font-family="Inter, sans-serif">$110</text><line x1="70" y1="50.0" x2="790" y2="50.0" stroke="#e5e7eb" stroke-width="1"/><text x="62" y="54.0" text-anchor="end" font-size="11" fill="#6b7280" font-family="Inter, sans-serif">$120</text>
<line x1="423.5" y1="50" x2="423.5" y2="360" stroke="#dc2626" stroke-width="1.5" stroke-dasharray="4,3"/><text x="429.5" y="64" font-size="11" fill="#dc2626" font-family="Inter, sans-serif" font-weight="600">28 Feb: US–Israel strikes Iran</text>
<polyline fill="none" stroke="#0ea5e9" stroke-width="2.5" points="70.0,342.7 115.8,338.7 161.6,329.6 207.5,304.8 253.3,318.4 299.1,320.0 344.9,299.2 390.7,295.5 436.5,191.1 482.4,137.1 528.2,90.4 574.0,88.4 619.8,106.7 665.6,178.1 711.5,156.5 737.6,211.8 744.2,203.0 750.7,203.0 770.4,162.0 776.9,126.4 783.5,121.0 790.0,125.8"/>
<circle cx="574.0" cy="88.4" r="4" fill="#0f172a"/><text x="582.0" y="80.4" font-size="11" fill="#0f172a" font-family="Inter, sans-serif" font-weight="600">Peak $112.57</text><circle cx="790.0" cy="125.8" r="4" fill="#0f172a"/><text x="782.0" y="115.8" font-size="11" text-anchor="end" fill="#0f172a" font-family="Inter, sans-serif" font-weight="600">Latest $105.33</text>
<text x="70.0" y="378" text-anchor="middle" font-size="11" fill="#6b7280" font-family="Inter, sans-serif">Jan 2026</text><text x="253.3" y="378" text-anchor="middle" font-size="11" fill="#6b7280" font-family="Inter, sans-serif">Feb 2026</text><text x="436.5" y="378" text-anchor="middle" font-size="11" fill="#6b7280" font-family="Inter, sans-serif">Mar 2026</text><text x="665.6" y="378" text-anchor="middle" font-size="11" fill="#6b7280" font-family="Inter, sans-serif">Apr 2026</text>
<text x="20" y="205.0" font-size="11" fill="#6b7280" transform="rotate(-90 20 205.0)" text-anchor="middle">USD per barrel</text>
</svg>