<svg xmlns="http://www.w3.org/2000/svg" viewBox="0 0 820 620" font-family="Inter, sans-serif">
<rect width="820" height="620" fill="#ffffff"/>
<text x="110" y="22" font-size="15" fill="#0f172a" font-weight="700">EU jet-fuel days of supply by country</text>
<text x="110" y="40" font-size="12" fill="#6b7280">Source: EuroOilWatch tracker, Eurostat data 2026-02. 20 of 27 countries below the 90-day threshold.</text>
<line x1="427.0" y1="60" x2="427.0" y2="590" stroke="#0f172a" stroke-width="1.5" stroke-dasharray="4,3"/><text x="433.0" y="52" font-size="11" fill="#0f172a" font-weight="600">90-day Directive threshold</text>
<rect x="130" y="62.0" width="70.3" height="15.6" fill="#dc2626" rx="2"/><text x="122" y="73.8" text-anchor="end" font-size="11" fill="#0f172a">Poland</text><text x="194.3" y="73.8" text-anchor="end" font-size="11" fill="#ffffff" font-weight="600">21</text><rect x="130" y="81.6" width="76.2" height="15.6" fill="#dc2626" rx="2"/><text x="122" y="93.4" text-anchor="end" font-size="11" fill="#0f172a">Portugal</text><text x="200.2" y="93.4" text-anchor="end" font-size="11" fill="#ffffff" font-weight="600">23</text><rect x="130" y="101.3" width="134.6" height="15.6" fill="#dc2626" rx="2"/><text x="122" y="113.1" text-anchor="end" font-size="11" fill="#0f172a">Austria</text><text x="258.6" y="113.1" text-anchor="end" font-size="11" fill="#ffffff" font-weight="600">41</text><rect x="130" y="120.9" width="143.2" height="15.6" fill="#dc2626" rx="2"/><text x="122" y="132.7" text-anchor="end" font-size="11" fill="#0f172a">Spain</text><text x="267.2" y="132.7" text-anchor="end" font-size="11" fill="#ffffff" font-weight="600">43</text><rect x="130" y="140.5" width="147.8" height="15.6" fill="#dc2626" rx="2"/><text x="122" y="152.3" text-anchor="end" font-size="11" fill="#0f172a">Finland</text><text x="271.8" y="152.3" text-anchor="end" font-size="11" fill="#ffffff" font-weight="600">45</text><rect x="130" y="160.1" width="176.2" height="15.6" fill="#dc2626" rx="2"/><text x="122" y="172.0" text-anchor="end" font-size="11" fill="#0f172a">Slovakia</text><text x="300.2" y="172.0" text-anchor="end" font-size="11" fill="#ffffff" font-weight="600">53</text><rect x="130" y="179.8" width="179.2" height="15.6" fill="#dc2626" rx="2"/><text x="122" y="191.6" text-anchor="end" font-size="11" fill="#0f172a">Lithuania</text><text x="303.2" y="191.6" text-anchor="end" font-size="11" fill="#ffffff" font-weight="600">54</text><rect x="130" y="199.4" width="188.8" height="15.6" fill="#dc2626" rx="2"/><text x="122" y="211.2" text-anchor="end" font-size="11" fill="#0f172a">Luxembourg</text><text x="312.8" y="211.2" text-anchor="end" font-size="11" fill="#ffffff" font-weight="600">57</text><rect x="130" y="219.0" width="194.4" height="15.6" fill="#dc2626" rx="2"/><text x="122" y="230.9" text-anchor="end" font-size="11" fill="#0f172a">Hungary</text><text x="318.4" y="230.9" text-anchor="end" font-size="11" fill="#ffffff" font-weight="600">59</text><rect x="130" y="238.7" width="194.7" height="15.6" fill="#dc2626" rx="2"/><text x="122" y="250.5" text-anchor="end" font-size="11" fill="#0f172a">Netherlands</text><text x="318.7" y="250.5" text-anchor="end" font-size="11" fill="#ffffff" font-weight="600">59</text><rect x="130" y="258.3" width="196.7" height="15.6" fill="#dc2626" rx="2"/><text x="122" y="270.1" text-anchor="end" font-size="11" fill="#0f172a">France</text><text x="320.7" y="270.1" text-anchor="end" font-size="11" fill="#ffffff" font-weight="600">60</text><rect x="130" y="277.9" width="202.6" height="15.6" fill="#dc2626" rx="2"/><text x="122" y="289.7" text-anchor="end" font-size="11" fill="#0f172a">Germany</text><text x="326.6" y="289.7" text-anchor="end" font-size="11" fill="#ffffff" font-weight="600">61</text><rect x="130" y="297.6" width="217.8" height="15.6" fill="#dc2626" rx="2"/><text x="122" y="309.4" text-anchor="end" font-size="11" fill="#0f172a">Latvia</text><text x="341.8" y="309.4" text-anchor="end" font-size="11" fill="#ffffff" font-weight="600">66</text><rect x="130" y="317.2" width="222.8" height="15.6" fill="#dc2626" rx="2"/><text x="122" y="329.0" text-anchor="end" font-size="11" fill="#0f172a">Denmark</text><text x="346.8" y="329.0" text-anchor="end" font-size="11" fill="#ffffff" font-weight="600">68</text><rect x="130" y="336.8" width="224.7" height="15.6" fill="#dc2626" rx="2"/><text x="122" y="348.6" text-anchor="end" font-size="11" fill="#0f172a">Italy</text><text x="348.7" y="348.6" text-anchor="end" font-size="11" fill="#ffffff" font-weight="600">68</text><rect x="130" y="356.4" width="229.0" height="15.6" fill="#dc2626" rx="2"/><text x="122" y="368.3" text-anchor="end" font-size="11" fill="#0f172a">Czechia</text><text x="353.0" y="368.3" text-anchor="end" font-size="11" fill="#ffffff" font-weight="600">69</text><rect x="130" y="376.1" width="247.5" height="15.6" fill="#dc2626" rx="2"/><text x="122" y="387.9" text-anchor="end" font-size="11" fill="#0f172a">Croatia</text><text x="371.5" y="387.9" text-anchor="end" font-size="11" fill="#ffffff" font-weight="600">75</text><rect x="130" y="395.7" width="252.1" height="15.6" fill="#dc2626" rx="2"/><text x="122" y="407.5" text-anchor="end" font-size="11" fill="#0f172a">Romania</text><text x="376.1" y="407.5" text-anchor="end" font-size="11" fill="#ffffff" font-weight="600">76</text><rect x="130" y="415.3" width="263.7" height="15.6" fill="#dc2626" rx="2"/><text x="122" y="427.1" text-anchor="end" font-size="11" fill="#0f172a">Bulgaria</text><text x="387.7" y="427.1" text-anchor="end" font-size="11" fill="#ffffff" font-weight="600">80</text><rect x="130" y="435.0" width="284.8" height="15.6" fill="#dc2626" rx="2"/><text x="122" y="446.8" text-anchor="end" font-size="11" fill="#0f172a">Cyprus</text><text x="408.8" y="446.8" text-anchor="end" font-size="11" fill="#ffffff" font-weight="600">86</text><rect x="130" y="454.6" width="309.5" height="15.6" fill="#f59e0b" rx="2"/><text x="122" y="466.4" text-anchor="end" font-size="11" fill="#0f172a">Malta</text><text x="433.5" y="466.4" text-anchor="end" font-size="11" fill="#ffffff" font-weight="600">94</text><rect x="130" y="474.2" width="351.8" height="15.6" fill="#f59e0b" rx="2"/><text x="122" y="486.0" text-anchor="end" font-size="11" fill="#0f172a">Belgium</text><text x="475.8" y="486.0" text-anchor="end" font-size="11" fill="#ffffff" font-weight="600">107</text><rect x="130" y="493.9" width="356.4" height="15.6" fill="#f59e0b" rx="2"/><text x="122" y="505.7" text-anchor="end" font-size="11" fill="#0f172a">Sweden</text><text x="480.4" y="505.7" text-anchor="end" font-size="11" fill="#ffffff" font-weight="600">108</text><rect x="130" y="513.5" width="455.7" height="15.6" fill="#16a34a" rx="2"/><text x="122" y="525.3" text-anchor="end" font-size="11" fill="#0f172a">Greece</text><text x="579.7" y="525.3" text-anchor="end" font-size="11" fill="#ffffff" font-weight="600">138</text><rect x="130" y="533.1" width="461.0" height="15.6" fill="#16a34a" rx="2"/><text x="122" y="544.9" text-anchor="end" font-size="11" fill="#0f172a">Ireland</text><text x="585.0" y="544.9" text-anchor="end" font-size="11" fill="#ffffff" font-weight="600">140</text><rect x="130" y="552.7" width="660.0" height="15.6" fill="#16a34a" rx="2"/><text x="122" y="564.6" text-anchor="end" font-size="11" fill="#0f172a">Slovenia</text><text x="784.0" y="564.6" text-anchor="end" font-size="11" fill="#ffffff" font-weight="600">365 →</text><rect x="130" y="572.4" width="660.0" height="15.6" fill="#16a34a" rx="2"/><text x="122" y="584.2" text-anchor="end" font-size="11" fill="#0f172a">Estonia</text><text x="784.0" y="584.2" text-anchor="end" font-size="11" fill="#ffffff" font-weight="600">365 →</text>
</svg>